<svg width="24" height="24" viewBox="0 0 24 24" fill="none" xmlns="http://www.w3.org/2000/svg">
<g clip-path="url(#clip0_1006_153)">
<path d="M8 7V8.86496C8 9.7128 7.01114 10.176 6.35982 9.63318L2.92186 6.76822C2.44211 6.36843 2.44211 5.63157 2.92187 5.23178L6.35982 2.36682C7.01114 1.82405 8 2.2872 8 3.13504V5H13C15.1217 5 17.1566 5.84285 18.6569 7.34315C20.1571 8.84344 21 10.8783 21 13C21 14.7865 20.4024 16.5114 19.318 17.9074C18.9792 18.3436 18.3403 18.3403 17.9497 17.9497C17.5592 17.5592 17.5674 16.9299 17.8877 16.48C18.6065 15.4705 19 14.2555 19 13C19 11.4087 18.3679 9.88258 17.2426 8.75736C16.1174 7.63214 14.5913 7 13 7H8Z" fill="#848484"/>
<path d="M3.57 21C3.13 21 2.91 20.7867 2.91 20.36C2.91 19.94 3.13 19.73 3.57 19.73H4.58V15.67L3.85 16.11C3.65667 16.2233 3.48333 16.2533 3.33 16.2C3.17667 16.1467 3.06 16.0467 2.98 15.9C2.9 15.7533 2.87667 15.5967 2.91 15.43C2.94333 15.2567 3.05333 15.11 3.24 14.99L4.63 14.15C4.77 14.0633 4.91 13.9933 5.05 13.94C5.19667 13.8867 5.34 13.86 5.48 13.86C5.68 13.86 5.83667 13.9133 5.95 14.02C6.07 14.1267 6.13 14.2833 6.13 14.49V19.73H7.04C7.47333 19.73 7.69 19.94 7.69 20.36C7.69 20.7867 7.47333 21 7.04 21H3.57ZM10.7961 21.11C9.94276 21.11 9.28943 20.7933 8.83609 20.16C8.38943 19.5267 8.16609 18.6233 8.16609 17.45C8.16609 16.2767 8.38943 15.3833 8.83609 14.77C9.28943 14.15 9.94276 13.84 10.7961 13.84C11.6494 13.84 12.2994 14.15 12.7461 14.77C13.1994 15.3833 13.4261 16.2767 13.4261 17.45C13.4261 18.6233 13.1994 19.5267 12.7461 20.16C12.2994 20.7933 11.6494 21.11 10.7961 21.11ZM10.7961 19.85C11.1828 19.85 11.4694 19.66 11.6561 19.28C11.8428 18.8933 11.9361 18.2833 11.9361 17.45C11.9361 16.6167 11.8428 16.0167 11.6561 15.65C11.4694 15.2833 11.1828 15.1 10.7961 15.1C10.4094 15.1 10.1228 15.2833 9.93609 15.65C9.74943 16.0167 9.65609 16.6167 9.65609 17.45C9.65609 18.2833 9.74943 18.8933 9.93609 19.28C10.1228 19.66 10.4094 19.85 10.7961 19.85Z" fill="#848484"/>
</g>
<defs>
<clipPath id="clip0_1006_153">
<rect width="24" height="24" fill="white"/>
</clipPath>
</defs>
</svg>
