<svg width="24" height="24" viewBox="0 0 24 24" fill="none" xmlns="http://www.w3.org/2000/svg">
<g clip-path="url(#clip0_1006_161)">
<path d="M14 7C14.5523 7 15 7.44772 15 8V8.86496C15 9.7128 15.9889 10.176 16.6402 9.63318L20.0781 6.76822C20.5579 6.36843 20.5579 5.63157 20.0781 5.23178L16.6402 2.36682C15.9889 1.82405 15 2.2872 15 3.13504V4C15 4.55228 14.5523 5 14 5H10C7.87827 5 5.84344 5.84285 4.34315 7.34315C2.84285 8.84344 2 10.8783 2 13C2 14.7865 2.59755 16.5114 3.68197 17.9074C4.02077 18.3436 4.65973 18.3403 5.05025 17.9497C5.44078 17.5592 5.43259 16.9299 5.11227 16.48C4.39352 15.4705 4 14.2555 4 13C4 11.4087 4.63214 9.88258 5.75736 8.75736C6.88258 7.63214 8.4087 7 10 7H14Z" fill="#848484"/>
<path d="M8.57 21C8.13 21 7.91 20.7867 7.91 20.36C7.91 19.94 8.13 19.73 8.57 19.73H9.58V15.67L8.85 16.11C8.65667 16.2233 8.48333 16.2533 8.33 16.2C8.17667 16.1467 8.06 16.0467 7.98 15.9C7.9 15.7533 7.87667 15.5967 7.91 15.43C7.94333 15.2567 8.05333 15.11 8.24 14.99L9.63 14.15C9.77 14.0633 9.91 13.9933 10.05 13.94C10.1967 13.8867 10.34 13.86 10.48 13.86C10.68 13.86 10.8367 13.9133 10.95 14.02C11.07 14.1267 11.13 14.2833 11.13 14.49V19.73H12.04C12.4733 19.73 12.69 19.94 12.69 20.36C12.69 20.7867 12.4733 21 12.04 21H8.57ZM15.7961 21.11C14.9428 21.11 14.2894 20.7933 13.8361 20.16C13.3894 19.5267 13.1661 18.6233 13.1661 17.45C13.1661 16.2767 13.3894 15.3833 13.8361 14.77C14.2894 14.15 14.9428 13.84 15.7961 13.84C16.6494 13.84 17.2994 14.15 17.7461 14.77C18.1994 15.3833 18.4261 16.2767 18.4261 17.45C18.4261 18.6233 18.1994 19.5267 17.7461 20.16C17.2994 20.7933 16.6494 21.11 15.7961 21.11ZM15.7961 19.85C16.1828 19.85 16.4694 19.66 16.6561 19.28C16.8428 18.8933 16.9361 18.2833 16.9361 17.45C16.9361 16.6167 16.8428 16.0167 16.6561 15.65C16.4694 15.2833 16.1828 15.1 15.7961 15.1C15.4094 15.1 15.1228 15.2833 14.9361 15.65C14.7494 16.0167 14.6561 16.6167 14.6561 17.45C14.6561 18.2833 14.7494 18.8933 14.9361 19.28C15.1228 19.66 15.4094 19.85 15.7961 19.85Z" fill="#848484"/>
</g>
<defs>
<clipPath id="clip0_1006_161">
<rect width="24" height="24" fill="white"/>
</clipPath>
</defs>
</svg>
