<svg width="24" height="24" viewBox="0 0 24 24" fill="none" xmlns="http://www.w3.org/2000/svg">
<path fill-rule="evenodd" clip-rule="evenodd" d="M16.2001 7.4C16.5314 6.95817 17.1582 6.86863 17.6001 7.2C18.3452 7.75888 18.9501 8.48358 19.3666 9.31672C19.7832 10.1498 20.0001 11.0685 20.0001 12C20.0001 12.9315 19.7832 13.8501 19.3666 14.6833C18.9501 15.5164 18.3452 16.2411 17.6001 16.8C17.1582 17.1314 16.5314 17.0418 16.2001 16.6C15.8687 16.1582 15.9582 15.5314 16.4001 15.2C16.8968 14.8274 17.3001 14.3443 17.5778 13.7889C17.8555 13.2334 18.0001 12.621 18.0001 12C18.0001 11.379 17.8555 10.7666 17.5778 10.2111C17.3001 9.65572 16.8968 9.17259 16.4001 8.8C15.9582 8.46863 15.8687 7.84183 16.2001 7.4Z" fill="#848484"/>
<path fill-rule="evenodd" clip-rule="evenodd" d="M12 5.48618L8.78935 9.61416C8.5999 9.85774 8.30859 10.0002 8 10.0002H6V14.0002H8C8.30859 14.0002 8.5999 14.1427 8.78935 14.3863L12 18.5143V5.48618ZM11.5323 3.19939C11.9302 3.03732 12.3729 3.02292 12.7805 3.15878C13.1881 3.29464 13.5336 3.57181 13.7547 3.9402C13.9584 4.27966 14.044 4.67596 14 5.06753V18.9329C14.044 19.3245 13.9584 19.7208 13.7547 20.0602C13.5336 20.4286 13.1881 20.7058 12.7805 20.8417C12.3729 20.9775 11.9302 20.9631 11.5323 20.801C11.1689 20.653 10.8648 20.3908 10.665 20.0555L7.51092 16.0002H6C5.46957 16.0002 4.96086 15.7895 4.58579 15.4144C4.21071 15.0394 4 14.5306 4 14.0002V10.0002C4 9.46978 4.21071 8.96108 4.58579 8.586C4.96086 8.21093 5.46957 8.00022 6 8.00022H7.51092L10.665 3.94497C10.8648 3.60964 11.1689 3.3474 11.5323 3.19939Z" fill="#848484"/>
</svg>
